# xmcd
#
# Track frame offsets:
# 150
# 35360
# 61807
#
# Disc length: 1118 seconds
#
# Revision: 0
# Processed by: cddbd v1.5.1PL0 Copyright (c) Steve Scherf et al.
# Submitted via: MacMP3 Pro 5.0 (http://mp3.act2.co.jp/)
#
DISCID=1c045c03
DTITLE=…K…[…b…g - REILA
DYEAR=1900
DGENRE=
TTITLE0=REILA
TTITLE1=Syunnsetu
TTITLE2=gottuan
EXTD=
EXTT0=
EXTT1=
EXTT2=
PLAYORDER=
